<svg version="1.1" xmlns="http://www.w3.org/2000/svg" xmlns:xlink="http://www.w3.org/1999/xlink" x="0px" y="0px"
	 viewBox="0 0 200 175" xml:space="preserve">
  <style type="text/css">
    .opacity-wrapper{opacity:0.25;}
  	.bg{fill:#FFFFFF;}
  	.st1{opacity:0.15;fill:#3A3A46;}
  	.st2{opacity:0.10;fill:#3A3A46;}
  	.st3{opacity:0.20;fill:#3A3A46;}
  	.st4{opacity:0.05;fill:#3A3A46;}
  </style>
  <g class="opacity-wrapper">
    <rect class="bg" width="200" height="175"/>
    <polygon class="st1" points="150.993,72.911 173.013,85.754 173.013,60.068 "/>
    <polygon class="st1" points="125,89.239 125,114.926 147.021,102.082 "/>
    <polygon class="st1" points="150.993,102.082 173.014,114.926 173.014,89.239 "/>
    <polygon class="st1" points="125.994,87.505 148.014,100.348 148.014,74.663 "/>
    <polygon class="st2" points="150,103.824 150,129.509 172.02,116.667 "/>
    <polygon class="st2" points="150,74.657 150,100.343 172.02,87.5 "/>
    <polygon class="st1" points="125.994,116.661 148.014,129.504 148.014,103.818 "/>
    <polygon class="st3" points="150.993,131.244 173.013,144.087 173.013,118.401 "/>
    <polygon class="st4" points="125,147.573 125,173.258 147.021,160.415 "/>
    <polygon class="st1" points="150.993,160.415 173.014,173.258 173.014,147.573 "/>
    <polygon class="st4" points="125.994,145.839 148.014,158.682 148.014,132.995 "/>
    <polygon class="st4" points="150,132.99 150,158.676 172.02,145.833 "/>
    <polygon class="st1" points="75,60.072 75,85.759 97.021,72.915 "/>
    <polygon class="st3" points="100.993,72.915 123.014,85.759 123.014,60.072 "/>
    <polygon class="st4" points="100,74.657 100,100.342 122.021,87.5 "/>
    <polygon class="st1" points="75.994,87.495 98.014,100.337 98.014,74.651 "/>
    <polygon class="st2" points="125,60.074 125,85.759 147.021,72.916 "/>
    <polygon class="st3" points="100.993,102.077 123.013,114.92 123.013,89.234 "/>
    <polygon class="st4" points="75,118.406 75,144.092 97.021,131.248 "/>
    <polygon class="st3" points="100.993,131.248 123.014,144.092 123.014,118.406 "/>
    <polygon class="st2" points="75.994,116.671 98.014,129.515 98.014,103.829 "/>
    <polygon class="st4" points="100,132.99 100,158.676 122.021,145.832 "/>
    <polygon class="st2" points="100,103.823 100,129.508 122.021,116.666 "/>
    <polygon class="st4" points="75.994,145.827 98.014,158.67 98.014,132.984 "/>
    <polygon class="st4" points="125,118.406 125,144.092 147.021,131.25 "/>
    <polygon class="st1" points="100.993,160.411 123.013,173.253 123.013,147.568 "/>
    <polygon class="st4" points="50.993,72.911 73.013,85.754 73.013,60.068 "/>
    <polygon class="st1" points="25,89.239 25,114.926 47.021,102.082 "/>
    <polygon class="st4" points="50.993,102.082 73.014,114.926 73.014,89.239 "/>
    <polygon class="st3" points="25.994,87.505 48.014,100.348 48.014,74.663 "/>
    <polygon class="st4" points="50,103.824 50,129.509 72.021,116.667 "/>
    <polygon class="st3" points="50,74.657 50,100.343 72.021,87.5 "/>
    <polygon class="st3" points="25.994,116.661 48.014,129.504 48.014,103.818 "/>
    <polygon class="st1" points="75,89.24 75,114.926 97.021,102.083 "/>
    <polygon class="st2" points="50.993,131.244 73.013,144.087 73.013,118.401 "/>
    <polygon class="st4" points="25,147.573 25,173.258 47.021,160.415 "/>
    <polygon class="st4" points="50.993,160.415 73.014,173.258 73.014,147.573 "/>
    <polygon class="st4" points="25.994,145.839 48.014,158.682 48.014,132.995 "/>
    <polygon class="st2" points="50,132.99 50,158.676 72.021,145.833 "/>
    <polygon class="st2" points="75,147.574 75,173.259 97.021,160.416 "/>
    <polygon class="st4" points="0.993,160.415 23.014,173.258 23.014,147.573 "/>
    <polygon class="st1" points="0.993,72.915 23.014,85.759 23.014,60.072 "/>
    <polygon class="st1" points="0,74.657 0,100.342 22.021,87.5 "/>
    <polygon class="st1" points="25,60.074 25,85.759 47.021,72.916 "/>
    <polygon class="st1" points="0.993,102.077 23.013,114.92 23.013,89.234 "/>
    <polygon class="st2" points="0.993,131.248 23.014,144.092 23.014,118.406 "/>
    <polygon class="st2" points="0,132.99 0,158.676 22.021,145.832 "/>
    <polygon class="st1" points="0,103.823 0,129.508 22.021,116.666 "/>
    <polygon class="st4" points="25,118.406 25,144.092 47.021,131.25 "/>
    <polygon class="st4" points="125,30.907 125,56.592 147.021,43.749 "/>
    <polygon class="st4" points="150,42.01 172.02,29.167 172.02,29.166 172.02,29.166 150,16.324 150,42.01 "/>
    <polygon class="st4" points="126.002,58.333 125.993,58.339 148.013,71.182 148.013,71.171 148.014,71.171 148.014,45.485 
    	125.994,58.328 "/>
    <polygon class="st4" points="75,1.739 75,27.426 97.021,14.583 "/>
    <polygon class="st1" points="123.014,27.426 123.014,1.739 100.993,14.583 "/>
    <polygon class="st1" points="100,16.324 100,42.01 122.021,29.166 "/>
    <polygon class="st1" points="98.014,42.004 98.014,16.318 75.994,29.161 "/>
    <polygon class="st2" points="147.02,14.583 147.02,14.583 125,1.739 125,1.74 125,1.74 125,27.426 147.021,14.584 "/>
    <polygon class="st2" points="123.013,56.587 123.013,30.901 100.993,43.745 "/>
    <polygon class="st4" points="98.014,71.182 98.014,45.496 75.994,58.339 "/>
    <polygon class="st2" points="100,71.176 122.021,58.333 100,45.49 "/>
    <polygon class="st4" points="25,30.907 25,56.592 47.021,43.749 "/>
    <polygon class="st2" points="73.014,56.592 73.014,30.907 50.993,43.749 "/>
    <polygon class="st4" points="48.014,42.016 48.014,16.329 25.994,29.172 "/>
    <polygon class="st4" points="50,71.177 72.021,58.333 50,45.491 "/>
    <polygon class="st4" points="50,16.324 50,42.01 72.021,29.167 "/>
    <polygon class="st4" points="48.014,71.171 48.014,45.485 25.994,58.328 "/>
    <polygon class="st2" points="75,30.908 75,56.593 97.021,43.75 "/>
    <polygon class="st1" points="23.014,27.426 23.014,1.739 0.993,14.583 "/>
    <polygon class="st2" points="0,16.324 0,42.01 22.021,29.166 "/>
    <polygon class="st2" points="25,1.74 25,27.426 47.021,14.584 "/>
    <polygon class="st4" points="73.014,27.426 73.014,1.739 50.993,14.583 "/>
    <polygon class="st1" points="23.013,56.587 23.013,30.901 0.993,43.745 "/>
    <polygon class="st2" points="0,71.176 22.021,58.333 0,45.49 "/>
    <polygon class="st3" points="173.013,27.426 173.013,1.739 150.993,14.583 "/>
    <polygon class="st4" points="148.013,16.318 125.993,29.161 126.003,29.167 125.994,29.172 148.014,42.016 148.014,16.329 
    	148.013,16.33 "/>
    <polygon class="st3" points="173.013,30.901 150.993,43.745 150.997,43.747 150.993,43.749 173.014,56.592 173.014,30.907 
    	173.013,30.907 "/>
    <polygon class="st3" points="172.02,58.333 150,45.49 150,71.176 150,71.176 150,71.177 172.02,58.333 172.02,58.333 "/>
    <polygon class="st3" points="0,12.842 22.021,0 0,0 "/>
    <polygon class="st2" points="26.002,0 25.994,0.005 48.014,12.848 48.014,0 "/>
    <polygon class="st2" points="50,12.842 72.021,0 50,0 "/>
    <polygon class="st2" points="76.002,0 75.994,0.005 98.014,12.848 98.014,0 "/>
    <polygon class="st4" points="100,12.842 122.021,0 100,0 "/>
    <polygon class="st2" points="126.002,0 125.993,0.005 148.013,12.848 148.013,0 "/>
    <polygon class="st2" points="150,12.842 172.02,0 150,0 "/>
    <polygon class="st2" points="172.02,175 150,162.157 150,175 "/>
    <polygon class="st2" points="148.014,175 148.014,162.151 125.994,174.994 126.002,175 "/>
    <polygon class="st4" points="122.021,175 100,162.157 100,175 "/>
    <polygon class="st2" points="98.014,175 98.014,162.155 75.993,174.999 75.994,175 "/>
    <polygon class="st2" points="72.021,175 50,162.157 50,175 "/>
    <polygon class="st2" points="48.014,175 48.014,162.151 25.994,174.994 26.002,175 "/>
    <polygon class="st3" points="0,162.157 0,175 22.021,175 "/>
    <polygon class="st4" points="197.021,14.584 175,1.741 175,27.427 "/>
    <polygon class="st1" points="197.021,102.084 175,89.241 175,114.927 "/>
    <polygon class="st3" points="198.014,100.343 198.014,74.657 175.993,87.5 "/>
    <polygon class="st3" points="197.021,72.922 175,60.079 175,85.766 "/>
    <polygon class="st2" points="197.021,43.752 175,30.908 175,56.594 "/>
    <polygon class="st2" points="198.014,42.01 198.014,16.324 175.993,29.167 "/>
    <polygon class="st1" points="198.014,71.177 198.014,45.491 175.993,58.333 "/>
    <polygon class="st1" points="175,147.574 175,173.26 197.021,160.417 "/>
    <polygon class="st2" points="198.014,158.676 198.014,132.99 175.993,145.833 "/>
    <polygon class="st1" points="175,118.413 175,144.098 197.021,131.255 "/>
    <polygon class="st2" points="198.014,103.824 175.993,116.667 198.014,129.509 "/>
    <polygon class="st3" points="198.014,162.157 175.993,175 198.014,175 "/>
    <polygon class="st3" points="198.014,12.842 198.014,0 175.993,0 "/>
  </g>
</svg>
