<?xml version="1.0" encoding="utf-8"?>
<!-- Generator: Adobe Illustrator 22.1.0, SVG Export Plug-In . SVG Version: 6.00 Build 0)  -->
<svg version="1.1" id="Layer_1" xmlns="http://www.w3.org/2000/svg" xmlns:xlink="http://www.w3.org/1999/xlink" x="0px" y="0px"
	 viewBox="0 0 60 60" style="enable-background:new 0 0 60 60;" xml:space="preserve">
<style type="text/css">
	.st0{fill:#B4D455;}
	.st1{fill:#FFFFFF;}
	.st2{fill:#3A3A46;}
	.st3{fill:#3A3A46;stroke:#000000;stroke-miterlimit:10;}
	.st4{fill:#E61973;}
</style>
<polygon class="st2" points="55.981,45 55.981,15 30,0 4.019,15 4.019,45 30,60 "/>
<circle class="st0" cx="30.384" cy="23.258" r="2.306"/>
<circle class="st0" cx="27.79" cy="28.797" r="1.727"/>
<path class="st0" d="M22.623,31.601c0,0,4.468,2.878,7.346,0c2.878-2.878,7.408,0,7.408,0l5.162,13.337H17.461L22.623,31.601z"/>
<path class="st1" d="M34.733,18.37v-7.309h3.162V8.67h-15.79v2.391h3.162v7.309l-11.306,28.96h32.078L34.733,18.37z M27.658,18.37
	c0,0-0.013-7.171-0.037-7.309h4.759c-0.025,0.137-0.037,7.309-0.037,7.309c0,0.298,10.197,26.569,10.197,26.569H17.461
	C17.461,44.938,27.658,18.667,27.658,18.37z"/>
</svg>
